<svg version="1.2" xmlns="http://www.w3.org/2000/svg" viewBox="0 0 414 513" width="414" height="513">
	<title>image</title>
	<style>
		.s0 { fill: #f5aa00 } 
		.s1 { fill: #0d86c8 } 
		.s2 { fill: #ffffff } 
	</style>
	<g id="Background">
		<path id="Path 0" class="s0" d="m237 11.3c-71.2 6-129.6 11.2-129.8 11.3-0.1 0.2 12.7 36.3 28.5 80.2 15.7 43.8 28.9 80 29.2 80.4 0.3 0.4 40.9 6.2 90.3 13 49.3 6.8 90 12.7 90.5 13.1 0.4 0.5-5.5 44-13.2 96.7-7.7 52.8-13.8 96.2-13.5 96.5 0.3 0.3 20.6-6.5 45.2-15.2l44.8-15.8c0-4.6-7-87.4-15.5-187-8.5-99.6-15.5-181.8-15.5-182.8 0-1.4-0.9-1.7-5.7-1.6-3.2 0.1-64.1 5.1-135.3 11.2z"/>
		<path id="Path 1" class="s1" d="m47.2 190.3c-1.7 12.2-10.6 73.9-19.7 137.2-9.1 63.3-17.2 119.3-17.9 124.5-0.7 5.2-1.3 9.5-1.2 9.6 0 0 66 9.2 146.6 20.3 80.6 11.1 147.2 20.1 148 20.1 1.2 0 2.9-9.3 8.6-48.7 4-26.9 6.9-49.1 6.5-49.4-0.3-0.4-14.8 4.4-32.1 10.7-17.3 6.2-31.9 11.2-32.3 11.1-0.5-0.1-20.6-54.6-44.6-121.2l-43.7-121c-85.9-11.9-111.8-15.4-113-15.4-1.9-0.1-2.2 1.3-5.2 22.2z"/>
		<path id="Path 2" class="s2" d="m166 184.5c0 0.3 19.4 54.4 43.2 120.3 23.7 65.8 43.4 120.1 43.7 120.5 0.3 0.4 14.8-4.3 32.1-10.4 17.3-6.2 31.9-11.2 32.5-11.2 0.6 0 7.1-42.3 15-96.8 7.7-53.2 13.6-97.1 13.2-97.6-0.5-0.4-40.8-6.3-89.5-13-48.8-6.7-89-12.3-89.5-12.3-0.4 0-0.7 0.2-0.7 0.5z"/>
	</g>
</svg>